<svg width="152" height="152" viewBox="0 0 152 152" fill="none" xmlns="http://www.w3.org/2000/svg">
<path fill-rule="evenodd" clip-rule="evenodd" d="M117.847 12.6666H92.2965L28.9631 76L92.2965 139.333H117.847C120.104 139.333 121.234 136.605 119.638 135.009L60.6298 76L119.638 16.9913C121.234 15.3954 120.104 12.6666 117.847 12.6666Z" fill="#98BFFA"/>
<path fill-rule="evenodd" clip-rule="evenodd" d="M59.7043 12.6666H34.1536C31.8967 12.6666 30.7664 15.3954 32.3623 16.9913L60.167 44.796L76.0004 28.9627L59.7043 12.6666ZM91.8337 44.796L76.0004 60.6293L91.371 76L32.3623 135.009C30.7664 136.605 31.8967 139.333 34.1536 139.333H59.7043L123.038 76L91.8337 44.796Z" fill="#408CFF"/>
</svg>
