<svg width="196" height="196" viewBox="0 0 196 196" fill="none" xmlns="http://www.w3.org/2000/svg">
<path fill-rule="evenodd" clip-rule="evenodd" d="M151.961 16.3334H119.014L37.3473 98L119.014 179.667H151.961C154.871 179.667 156.329 176.148 154.271 174.09L78.1806 98L154.271 21.9099C156.329 19.852 154.871 16.3334 151.961 16.3334Z" fill="#98BFFA"/>
<path fill-rule="evenodd" clip-rule="evenodd" d="M76.9872 16.3334H44.0403C41.13 16.3334 39.6725 19.852 41.7304 21.9099L77.5839 57.7634L98.0006 37.3467L76.9872 16.3334ZM118.417 57.7634L98.0005 78.18L117.821 98L41.7304 174.09C39.6725 176.148 41.13 179.667 44.0403 179.667H76.9872L158.654 98L118.417 57.7634Z" fill="#408CFF"/>
</svg>
